<svg width="30" height="30" viewBox="0 0 30 30" fill="none" xmlns="http://www.w3.org/2000/svg">
<path d="M26.0769 17.7692C26.0769 17.7692 26.1384 18.7538 25.1538 18.7538H8.3538C7.79995 18.7538 7.5538 18.0154 7.92303 17.6462L11.3692 14.2C11.7384 13.8308 11.7384 13.2769 11.3692 12.9077L10.0769 11.6154C9.70764 11.2462 9.1538 11.2462 8.78457 11.6154L0.476874 19.9231C0.107643 20.2923 0.107643 20.8462 0.476874 21.2154L8.8461 29.5231C9.21534 29.8923 9.76918 29.8923 10.1384 29.5231L11.4307 28.2308C11.8 27.8615 11.8 27.3077 11.4307 26.9385L7.98457 23.4923C7.61534 23.0615 7.86149 22.4462 8.41534 22.4462H28.8461C29.2769 22.4462 29.7692 21.9538 29.7692 21.4615V1.15385C29.7692 0.723082 29.3384 0.230774 28.8461 0.230774H26.9999C26.5076 0.230774 26.0769 0.723082 26.0769 1.15385V17.7692Z" fill="#333333"/>
</svg>
